<mxfile host="app.diagrams.net" modified="2023-10-15T03:10:54.479Z" agent="Mozilla/5.0 (Windows NT 10.0; Win64; x64) AppleWebKit/537.36 (KHTML, like Gecko) Chrome/117.0.0.0 Safari/537.36" etag="ne_CpLGMZRir5XTGHvUI" version="22.0.4" type="github">
  <diagram id="C5RBs43oDa-KdzZeNtuy" name="Page-1">
    <mxGraphModel dx="1235" dy="666" grid="1" gridSize="10" guides="1" tooltips="1" connect="1" arrows="1" fold="1" page="1" pageScale="1" pageWidth="1200" pageHeight="1920" math="0" shadow="0">
      <root>
        <mxCell id="WIyWlLk6GJQsqaUBKTNV-0" />
        <mxCell id="WIyWlLk6GJQsqaUBKTNV-1" parent="WIyWlLk6GJQsqaUBKTNV-0" />
        <mxCell id="WIyWlLk6GJQsqaUBKTNV-2" value="" style="rounded=0;html=1;jettySize=auto;orthogonalLoop=1;fontSize=11;endArrow=block;endFill=0;endSize=8;strokeWidth=1;shadow=0;labelBackgroundColor=none;edgeStyle=orthogonalEdgeStyle;" parent="WIyWlLk6GJQsqaUBKTNV-1" source="WIyWlLk6GJQsqaUBKTNV-3" target="WIyWlLk6GJQsqaUBKTNV-6" edge="1">
          <mxGeometry relative="1" as="geometry" />
        </mxCell>
        <mxCell id="WIyWlLk6GJQsqaUBKTNV-3" value="Початок програми" style="rounded=1;whiteSpace=wrap;html=1;fontSize=12;glass=0;strokeWidth=1;shadow=0;" parent="WIyWlLk6GJQsqaUBKTNV-1" vertex="1">
          <mxGeometry x="160" y="80" width="120" height="40" as="geometry" />
        </mxCell>
        <mxCell id="gjr7lVgRsGs27SYCdnKf-11" value="" style="edgeStyle=orthogonalEdgeStyle;rounded=0;orthogonalLoop=1;jettySize=auto;html=1;" edge="1" parent="WIyWlLk6GJQsqaUBKTNV-1" source="WIyWlLk6GJQsqaUBKTNV-6" target="WIyWlLk6GJQsqaUBKTNV-10">
          <mxGeometry relative="1" as="geometry" />
        </mxCell>
        <mxCell id="WIyWlLk6GJQsqaUBKTNV-6" value="&lt;font style=&quot;font-size: 8px;&quot;&gt;Запит користувача на введення натурального числа N.&lt;/font&gt;" style="rhombus;whiteSpace=wrap;html=1;shadow=0;fontFamily=Helvetica;fontSize=12;align=center;strokeWidth=1;spacing=6;spacingTop=-4;" parent="WIyWlLk6GJQsqaUBKTNV-1" vertex="1">
          <mxGeometry x="160" y="170" width="180" height="70" as="geometry" />
        </mxCell>
        <mxCell id="gjr7lVgRsGs27SYCdnKf-12" value="" style="edgeStyle=orthogonalEdgeStyle;rounded=0;orthogonalLoop=1;jettySize=auto;html=1;" edge="1" parent="WIyWlLk6GJQsqaUBKTNV-1" source="WIyWlLk6GJQsqaUBKTNV-10" target="gjr7lVgRsGs27SYCdnKf-8">
          <mxGeometry relative="1" as="geometry" />
        </mxCell>
        <mxCell id="WIyWlLk6GJQsqaUBKTNV-10" value="&lt;font style=&quot;font-size: 8px;&quot;&gt;Очікування введення користувача.&lt;/font&gt;" style="rhombus;whiteSpace=wrap;html=1;shadow=0;fontFamily=Helvetica;fontSize=12;align=center;strokeWidth=1;spacing=6;spacingTop=-4;" parent="WIyWlLk6GJQsqaUBKTNV-1" vertex="1">
          <mxGeometry x="180" y="290" width="140" height="70" as="geometry" />
        </mxCell>
        <mxCell id="gjr7lVgRsGs27SYCdnKf-13" value="" style="edgeStyle=orthogonalEdgeStyle;rounded=0;orthogonalLoop=1;jettySize=auto;html=1;" edge="1" parent="WIyWlLk6GJQsqaUBKTNV-1" source="gjr7lVgRsGs27SYCdnKf-8" target="gjr7lVgRsGs27SYCdnKf-10">
          <mxGeometry relative="1" as="geometry" />
        </mxCell>
        <mxCell id="gjr7lVgRsGs27SYCdnKf-8" value="&lt;font style=&quot;font-size: 8px;&quot;&gt;Ініціалізація змінних N, digit і count.&lt;/font&gt;" style="rhombus;whiteSpace=wrap;html=1;" vertex="1" parent="WIyWlLk6GJQsqaUBKTNV-1">
          <mxGeometry x="171.25" y="410" width="148.75" height="80" as="geometry" />
        </mxCell>
        <mxCell id="gjr7lVgRsGs27SYCdnKf-15" value="" style="edgeStyle=orthogonalEdgeStyle;rounded=0;orthogonalLoop=1;jettySize=auto;html=1;" edge="1" parent="WIyWlLk6GJQsqaUBKTNV-1" source="gjr7lVgRsGs27SYCdnKf-10" target="gjr7lVgRsGs27SYCdnKf-14">
          <mxGeometry relative="1" as="geometry" />
        </mxCell>
        <mxCell id="gjr7lVgRsGs27SYCdnKf-18" value="" style="edgeStyle=orthogonalEdgeStyle;rounded=0;orthogonalLoop=1;jettySize=auto;html=1;" edge="1" parent="WIyWlLk6GJQsqaUBKTNV-1" source="gjr7lVgRsGs27SYCdnKf-10" target="gjr7lVgRsGs27SYCdnKf-17">
          <mxGeometry relative="1" as="geometry" />
        </mxCell>
        <mxCell id="gjr7lVgRsGs27SYCdnKf-10" value="&lt;font style=&quot;font-size: 8px;&quot;&gt;Перевірка, чи N &amp;gt; 0.&lt;/font&gt;" style="rhombus;whiteSpace=wrap;html=1;" vertex="1" parent="WIyWlLk6GJQsqaUBKTNV-1">
          <mxGeometry x="171.25" y="540" width="140.63" height="90" as="geometry" />
        </mxCell>
        <mxCell id="gjr7lVgRsGs27SYCdnKf-31" value="" style="edgeStyle=orthogonalEdgeStyle;rounded=0;orthogonalLoop=1;jettySize=auto;html=1;" edge="1" parent="WIyWlLk6GJQsqaUBKTNV-1" source="gjr7lVgRsGs27SYCdnKf-14">
          <mxGeometry relative="1" as="geometry">
            <mxPoint x="650" y="585" as="targetPoint" />
          </mxGeometry>
        </mxCell>
        <mxCell id="gjr7lVgRsGs27SYCdnKf-14" value="&lt;font style=&quot;font-size: 8px;&quot;&gt;Виведення результату (змінної count) на екран&lt;/font&gt;." style="rhombus;whiteSpace=wrap;html=1;" vertex="1" parent="WIyWlLk6GJQsqaUBKTNV-1">
          <mxGeometry x="400" y="540" width="140" height="90" as="geometry" />
        </mxCell>
        <mxCell id="gjr7lVgRsGs27SYCdnKf-16" value="No" style="text;html=1;align=center;verticalAlign=middle;resizable=0;points=[];autosize=1;strokeColor=none;fillColor=none;" vertex="1" parent="WIyWlLk6GJQsqaUBKTNV-1">
          <mxGeometry x="330" y="555" width="40" height="30" as="geometry" />
        </mxCell>
        <mxCell id="gjr7lVgRsGs27SYCdnKf-21" value="" style="edgeStyle=orthogonalEdgeStyle;rounded=0;orthogonalLoop=1;jettySize=auto;html=1;" edge="1" parent="WIyWlLk6GJQsqaUBKTNV-1" source="gjr7lVgRsGs27SYCdnKf-17" target="gjr7lVgRsGs27SYCdnKf-20">
          <mxGeometry relative="1" as="geometry" />
        </mxCell>
        <mxCell id="gjr7lVgRsGs27SYCdnKf-24" value="" style="edgeStyle=orthogonalEdgeStyle;rounded=0;orthogonalLoop=1;jettySize=auto;html=1;" edge="1" parent="WIyWlLk6GJQsqaUBKTNV-1" source="gjr7lVgRsGs27SYCdnKf-17" target="gjr7lVgRsGs27SYCdnKf-23">
          <mxGeometry relative="1" as="geometry" />
        </mxCell>
        <mxCell id="gjr7lVgRsGs27SYCdnKf-17" value="&lt;font style=&quot;font-size: 8px;&quot;&gt;Обчислення останньої цифри числа N за допомогою операції N % 10 і збереження результату в змінній digit.&lt;/font&gt;" style="rhombus;whiteSpace=wrap;html=1;" vertex="1" parent="WIyWlLk6GJQsqaUBKTNV-1">
          <mxGeometry x="140" y="690" width="190" height="150" as="geometry" />
        </mxCell>
        <mxCell id="gjr7lVgRsGs27SYCdnKf-19" value="Yes" style="text;html=1;align=center;verticalAlign=middle;resizable=0;points=[];autosize=1;strokeColor=none;fillColor=none;" vertex="1" parent="WIyWlLk6GJQsqaUBKTNV-1">
          <mxGeometry x="240" y="638" width="40" height="30" as="geometry" />
        </mxCell>
        <mxCell id="gjr7lVgRsGs27SYCdnKf-34" value="" style="edgeStyle=orthogonalEdgeStyle;rounded=0;orthogonalLoop=1;jettySize=auto;html=1;" edge="1" parent="WIyWlLk6GJQsqaUBKTNV-1" source="gjr7lVgRsGs27SYCdnKf-20" target="gjr7lVgRsGs27SYCdnKf-14">
          <mxGeometry relative="1" as="geometry" />
        </mxCell>
        <mxCell id="gjr7lVgRsGs27SYCdnKf-20" value="&lt;font style=&quot;font-size: 8px;&quot;&gt;збільшення змінної count на 1.&lt;/font&gt;" style="rhombus;whiteSpace=wrap;html=1;" vertex="1" parent="WIyWlLk6GJQsqaUBKTNV-1">
          <mxGeometry x="430" y="725" width="130" height="80" as="geometry" />
        </mxCell>
        <mxCell id="gjr7lVgRsGs27SYCdnKf-22" value="Yes" style="text;html=1;align=center;verticalAlign=middle;resizable=0;points=[];autosize=1;strokeColor=none;fillColor=none;" vertex="1" parent="WIyWlLk6GJQsqaUBKTNV-1">
          <mxGeometry x="330" y="728" width="40" height="30" as="geometry" />
        </mxCell>
        <mxCell id="gjr7lVgRsGs27SYCdnKf-36" value="" style="edgeStyle=orthogonalEdgeStyle;rounded=0;orthogonalLoop=1;jettySize=auto;html=1;entryX=1;entryY=1;entryDx=0;entryDy=0;" edge="1" parent="WIyWlLk6GJQsqaUBKTNV-1" source="gjr7lVgRsGs27SYCdnKf-23" target="gjr7lVgRsGs27SYCdnKf-14">
          <mxGeometry relative="1" as="geometry">
            <mxPoint x="520" y="670" as="targetPoint" />
            <Array as="points">
              <mxPoint x="730" y="955" />
              <mxPoint x="730" y="670" />
              <mxPoint x="505" y="670" />
            </Array>
          </mxGeometry>
        </mxCell>
        <mxCell id="gjr7lVgRsGs27SYCdnKf-23" value="&lt;font style=&quot;font-size: 8px;&quot;&gt;Видалення останньої цифри числа N за допомогою операції N / 10.&lt;/font&gt;" style="rhombus;whiteSpace=wrap;html=1;" vertex="1" parent="WIyWlLk6GJQsqaUBKTNV-1">
          <mxGeometry x="155" y="910" width="160" height="90" as="geometry" />
        </mxCell>
        <mxCell id="gjr7lVgRsGs27SYCdnKf-25" value="No" style="text;html=1;align=center;verticalAlign=middle;resizable=0;points=[];autosize=1;strokeColor=none;fillColor=none;" vertex="1" parent="WIyWlLk6GJQsqaUBKTNV-1">
          <mxGeometry x="240" y="848" width="40" height="30" as="geometry" />
        </mxCell>
        <mxCell id="gjr7lVgRsGs27SYCdnKf-29" value="Кінець програми." style="whiteSpace=wrap;html=1;" vertex="1" parent="WIyWlLk6GJQsqaUBKTNV-1">
          <mxGeometry x="650" y="555" width="120" height="60" as="geometry" />
        </mxCell>
      </root>
    </mxGraphModel>
  </diagram>
</mxfile>
